<svg xmlns="http://www.w3.org/2000/svg" width="820" height="260" viewBox="0 0 820 260" role="img" aria-label="Top Languages">
<rect width="100%" height="100%" fill="#0d1117" rx="16"/>
<text x="40" y="42" fill="#e6edf3" font-size="28" font-family="Arial, sans-serif" font-weight="700">Top Languages</text>
<text x="40" y="90" fill="#e6edf3" font-size="14" font-family="Arial, sans-serif">Jupyter Notebook</text>
<text x="750" y="90" fill="#8b949e" font-size="12" font-family="Arial, sans-serif">95.3%</text>
<rect x="180" y="78" width="609.909417394769" height="12" rx="6" fill="#2ea043"/>
<text x="40" y="118" fill="#e6edf3" font-size="14" font-family="Arial, sans-serif">HTML</text>
<text x="750" y="118" fill="#8b949e" font-size="12" font-family="Arial, sans-serif">3.2%</text>
<rect x="180" y="106" width="20.457600117782736" height="12" rx="6" fill="#79c0ff"/>
<text x="40" y="146" fill="#e6edf3" font-size="14" font-family="Arial, sans-serif">Python</text>
<text x="750" y="146" fill="#8b949e" font-size="12" font-family="Arial, sans-serif">1.1%</text>
<rect x="180" y="134" width="7.217567481817917" height="12" rx="6" fill="#d2a8ff"/>
<text x="40" y="174" fill="#e6edf3" font-size="14" font-family="Arial, sans-serif">TypeScript</text>
<text x="750" y="174" fill="#8b949e" font-size="12" font-family="Arial, sans-serif">0.2%</text>
<rect x="180" y="162" width="1.4258833694799888" height="12" rx="6" fill="#ffa657"/>
<text x="40" y="202" fill="#e6edf3" font-size="14" font-family="Arial, sans-serif">JavaScript</text>
<text x="750" y="202" fill="#8b949e" font-size="12" font-family="Arial, sans-serif">0.1%</text>
<rect x="180" y="190" width="0.7269569450769052" height="12" rx="6" fill="#f85149"/>
<text x="40" y="230" fill="#e6edf3" font-size="14" font-family="Arial, sans-serif">C++</text>
<text x="750" y="230" fill="#8b949e" font-size="12" font-family="Arial, sans-serif">0.0%</text>
<rect x="180" y="218" width="0.262574691073405" height="12" rx="6" fill="#7ee787"/>
</svg>